<svg xmlns="http://www.w3.org/2000/svg" xmlns:xlink="http://www.w3.org/1999/xlink" width="257" height="257" viewBox="0 0 257 257">
  <defs>
    <circle id="logo-a" cx="125" cy="125" r="124.502"/>
    <linearGradient id="logo-d" x1="50%" x2="50%" y1="0%" y2="100%">
      <stop offset="0%" stop-color="#FFF" stop-opacity=".5"/>
      <stop offset="100%" stop-opacity=".15"/>
    </linearGradient>
    <path id="logo-c" d="M227.89462,113.477566 C228.864044,113.477566 229.649918,114.26344 229.649918,115.232864 C229.649918,116.202289 228.864044,116.988163 227.89462,116.988163 L219.41398,116.988163 C218.444555,116.988163 217.658681,116.202289 217.658681,115.232864 C217.658681,114.26344 218.444555,113.477566 219.41398,113.477566 L227.89462,113.477566 Z M225.788941,137.016124 C226.737182,137.217678 227.34249,138.149772 227.140935,139.098012 C226.939381,140.046252 226.007288,140.651561 225.059047,140.450006 L216.76373,138.686782 C215.815489,138.485227 215.210181,137.553134 215.411736,136.604894 C215.61329,135.656653 216.545383,135.051345 217.493624,135.2529 L225.788941,137.016124 Z M218.83404,159.602649 C219.719654,159.996949 220.117941,161.034525 219.723641,161.920138 C219.32934,162.805752 218.291765,163.20404 217.406152,162.809739 L209.658701,159.360352 C208.773088,158.966052 208.3748,157.928476 208.769101,157.042863 C209.163401,156.157249 210.200977,155.758961 211.08659,156.153262 L218.83404,159.602649 Z M207.333879,180.250002 C208.11816,180.819815 208.29202,181.917526 207.722206,182.701807 C207.152393,183.486088 206.054682,183.659948 205.270401,183.090134 L198.409419,178.105339 C197.625138,177.535526 197.451278,176.437815 198.021092,175.653534 C198.590905,174.869253 199.688616,174.695393 200.472897,175.265206 L207.333879,180.250002 Z M191.791069,198.055793 C192.439741,198.776216 192.381575,199.886087 191.661152,200.534758 C190.940729,201.18343 189.830859,201.125264 189.182187,200.404841 L189.182187,200.404841 L183.507531,194.102498 C182.858859,193.382075 182.917025,192.272204 183.637448,191.623533 C184.357871,190.974861 185.467742,191.033027 186.116413,191.75345 L191.791069,198.055793 Z M172.884907,212.241826 C173.369619,213.081372 173.081969,214.154896 172.242423,214.639608 C171.402876,215.12432 170.329353,214.836671 169.84464,213.997124 L165.60432,206.652675 C165.119608,205.813128 165.407258,204.739605 166.246804,204.254892 C167.086351,203.77018 168.159874,204.05783 168.644587,204.897376 L172.884907,212.241826 Z M151.441682,222.188101 C151.741251,223.110079 151.236688,224.100337 150.314711,224.399906 C149.392733,224.699475 148.402474,224.194913 148.102905,223.272935 L145.482244,215.207367 C145.182675,214.28539 145.687237,213.295131 146.609215,212.995562 C147.531192,212.695993 148.521451,213.200555 148.82102,214.122533 L151.441682,222.188101 Z M128.398566,227.459919 C128.499899,228.424033 127.800476,229.287748 126.836362,229.389081 L126.836362,229.389081 C125.872248,229.490413 125.008533,228.79099 124.9072,227.826876 L124.020732,219.392694 C123.9194,218.42858 124.618822,217.564865 125.582936,217.463533 C126.54705,217.3622 127.410765,218.061623 127.512098,219.025737 L128.398566,227.459919 Z M104.762654,227.826876 C104.661322,228.79099 103.797607,229.490413 102.833493,229.389081 C101.869379,229.287748 101.169956,228.424033 101.271288,227.459919 L102.157757,219.025737 C102.259089,218.061623 103.122804,217.3622 104.086918,217.463533 C105.051032,217.564865 105.750455,218.42858 105.649123,219.392694 L104.762654,227.826876 Z M81.5669491,223.272935 C81.2673804,224.194913 80.2771215,224.699475 79.3551438,224.399906 C78.4331662,224.100338 77.928604,223.110079 78.2281727,222.188101 L80.8488346,214.122533 C81.1484033,213.200555 82.1386622,212.695993 83.0606399,212.995562 C83.9826175,213.295131 84.4871797,214.28539 84.187611,215.207367 L81.5669491,223.272935 Z M59.8252142,213.997124 L59.8252142,213.997124 C59.3405019,214.836671 58.2669781,215.124321 57.4274317,214.639608 C56.5878853,214.154896 56.3002355,213.081372 56.7849478,212.241826 L56.7849478,212.241826 L61.0252678,204.897376 C61.5099801,204.05783 62.5835039,203.77018 63.4230503,204.254892 C64.2625967,204.739605 64.5502465,205.813128 64.0655342,206.652675 L59.8252142,213.997124 Z M40.4876678,200.404841 C39.8389961,201.125264 38.7291256,201.18343 38.0087026,200.534758 C37.2882797,199.886087 37.2301139,198.776216 37.8787856,198.055793 L43.5534413,191.75345 C44.202113,191.033027 45.3119835,190.974861 46.0324064,191.623533 C46.7528293,192.272204 46.8109952,193.382075 46.1623235,194.102498 L40.4876678,200.404841 Z M24.3994533,183.090134 C23.6151723,183.659948 22.5174618,183.486088 21.9476482,182.701807 C21.3778347,181.917526 21.551695,180.819815 22.335976,180.250002 L29.1969578,175.265207 C29.9812388,174.695393 31.0789493,174.869253 31.6487629,175.653534 C32.2185764,176.437815 32.0447161,177.535526 31.2604351,178.105339 L31.2604351,178.105339 L24.3994533,183.090134 Z M12.263703,162.809739 C11.3780895,163.20404 10.3405142,162.805752 9.94621364,161.920138 C9.55191311,161.034525 9.95020096,159.996949 10.8358145,159.602649 L10.8358145,159.602649 L18.5832645,156.153262 C19.468878,155.758961 20.5064533,156.157249 20.9007539,157.042863 C21.2950544,157.928476 20.8967665,158.966052 20.011153,159.360352 L12.263703,162.809739 Z M4.61080738,140.450006 L4.61080738,140.450006 C3.66256697,140.651561 2.73047386,140.046252 2.52891914,139.098012 C2.32736442,138.149772 2.93267276,137.217679 3.88091317,137.016124 L3.88091317,137.016124 L12.1762307,135.2529 C13.1244711,135.051345 14.0565643,135.656653 14.258119,136.604894 C14.4596737,137.553134 13.8543653,138.485227 12.9061249,138.686782 L4.61080738,140.450006 Z M1.77523472,116.988163 L1.77523472,116.988163 C0.805810057,116.988163 0.0199360941,116.202289 0.0199360941,115.232864 C0.0199360941,114.26344 0.805810057,113.477566 1.77523472,113.477566 L1.77523472,113.477566 L10.2558746,113.477566 C11.2252993,113.477566 12.0111732,114.26344 12.0111732,115.232864 C12.0111732,116.202289 11.2252993,116.988163 10.2558746,116.988163 L1.77523472,116.988163 Z M3.88091314,93.4496048 L3.88091314,93.4496048 C2.93267273,93.2480501 2.32736438,92.315957 2.52891911,91.3677166 C2.73047383,90.4194761 3.66256694,89.8141678 4.61080735,90.0157225 L4.61080735,90.0157225 L12.9061249,91.7789467 C13.8543653,91.9805014 14.4596737,92.9125945 14.2581189,93.8608349 C14.0565642,94.8090753 13.1244711,95.4143837 12.1762307,95.212829 L3.88091314,93.4496048 Z M10.8358144,70.8630796 C9.95020089,70.4687791 9.55191304,69.4312038 9.94621357,68.5455903 C10.3405141,67.6599768 11.3780894,67.2616889 12.2637029,67.6559895 L12.2637029,67.6559895 L20.011153,71.1053765 C20.8967665,71.499677 21.2950543,72.5372523 20.9007538,73.4228658 L20.9007538,73.4228658 C20.5064533,74.3084793 19.4688779,74.7067672 18.5832644,74.3124666 L10.8358144,70.8630796 Z M22.3359759,50.215727 C21.5516949,49.6459135 21.3778346,48.5482029 21.9476481,47.7639219 C22.5174617,46.9796409 23.6151722,46.8057806 24.3994532,47.3755941 L31.260435,52.3603892 C32.044716,52.9302027 32.2185763,54.0279132 31.6487628,54.8121943 C31.0789493,55.5964753 29.9812387,55.7703355 29.1969577,55.200522 L22.3359759,50.215727 Z M37.8787855,32.4099352 C37.2301138,31.6895123 37.2882796,30.5796418 38.0087025,29.9309701 L38.0087025,29.9309701 C38.7291254,29.2822984 39.8389959,29.3404642 40.4876677,30.0608871 L40.4876677,30.0608871 L46.1623234,36.3632308 C46.8109951,37.0836537 46.7528292,38.1935242 46.0324063,38.8421959 C45.3119834,39.4908676 44.2021129,39.4327018 43.5534412,38.7122788 L37.8787855,32.4099352 Z M56.7849477,18.2239028 C56.3002354,17.3843564 56.5878852,16.3108327 57.4274316,15.8261203 C58.266978,15.341408 59.3405018,15.6290578 59.8252141,16.4686042 L59.8252141,16.4686042 L64.065534,23.8130538 C64.5502464,24.6526002 64.2625965,25.726124 63.4230502,26.2108363 C62.5835038,26.6955486 61.50998,26.4078988 61.0252676,25.5683524 L61.0252676,25.5683524 L56.7849477,18.2239028 Z M78.2281726,8.27762759 C77.9286039,7.35564995 78.433166,6.36539098 79.3551437,6.06582229 C80.2771213,5.76625359 81.2673803,6.27081574 81.566949,7.19279338 L81.566949,7.19279338 L84.1876108,15.2583612 C84.4871795,16.1803388 83.9826174,17.1705978 83.0606397,17.4701665 C82.1386621,17.7697352 81.1484031,17.2651731 80.8488344,16.3431954 L80.8488344,16.3431954 L78.2281726,8.27762759 Z M101.271288,3.00580941 L101.271288,3.00580941 C101.169956,2.04169536 101.869379,1.1779803 102.833493,1.07664783 L102.833493,1.07664783 C103.797607,0.975315356 104.661322,1.67473802 104.762654,2.63885207 L104.762654,2.63885207 L105.649122,11.0730341 C105.750455,12.0371482 105.051032,12.9008632 104.086918,13.0021957 C103.122804,13.1035282 102.259089,12.4041055 102.157757,11.4399915 L101.271288,3.00580941 Z M124.9072,2.63885205 L124.9072,2.63885205 C125.008533,1.674738 125.872248,0.975315331 126.836362,1.0766478 L126.836362,1.0766478 L126.836362,1.0766478 C127.800476,1.17798027 128.499898,2.04169533 128.398566,3.00580939 L127.512098,11.4399914 C127.410765,12.4041055 126.54705,13.1035282 125.582936,13.0021957 C124.618822,12.9008632 123.919399,12.0371482 124.020732,11.0730341 L124.9072,2.63885205 Z M148.102905,7.1927933 C148.402474,6.27081566 149.392733,5.76625352 150.314711,6.06582221 L150.314711,6.06582221 C151.236688,6.36539091 151.74125,7.35564987 151.441682,8.27762752 L148.82102,16.3431953 C148.521451,17.265173 147.531192,17.7697351 146.609215,17.4701664 C145.687237,17.1705977 145.182675,16.1803388 145.482243,15.2583611 L148.102905,7.1927933 Z M169.84464,16.4686041 C170.329353,15.6290577 171.402876,15.3414079 172.242423,15.8261202 L172.242423,15.8261202 C173.081969,16.3108325 173.369619,17.3843563 172.884907,18.2239027 L168.644587,25.5683523 C168.159874,26.4078987 167.086351,26.6955485 166.246804,26.2108362 C165.407258,25.7261239 165.119608,24.6526001 165.60432,23.8130537 L169.84464,16.4686041 Z M189.182187,30.060887 C189.830858,29.340464 190.940729,29.2822982 191.661152,29.9309699 C192.381575,30.5796416 192.439741,31.6895121 191.791069,32.409935 L191.791069,32.409935 L186.116413,38.7122787 C185.467741,39.4327016 184.357871,39.4908675 183.637448,38.8421957 L183.637448,38.8421957 C182.917025,38.193524 182.858859,37.0836535 183.507531,36.3632306 L183.507531,36.3632306 L189.182187,30.060887 Z M205.270401,47.3755939 C206.054682,46.8057804 207.152393,46.9796407 207.722206,47.7639217 C208.29202,48.5482027 208.118159,49.6459133 207.333878,50.2157268 L200.472897,55.2005218 C199.688616,55.7703354 198.590905,55.5964751 198.021092,54.8121941 C197.451278,54.027913 197.625138,52.9302025 198.409419,52.360389 L205.270401,47.3755939 Z M217.406151,67.6559893 C218.291765,67.2616887 219.32934,67.6599766 219.723641,68.5455901 C220.117941,69.4312036 219.719654,70.4687789 218.83404,70.8630794 L211.08659,74.3124664 C210.200976,74.706767 209.163401,74.3084791 208.769101,73.4228656 C208.3748,72.5372521 208.773088,71.4996768 209.658701,71.1053763 L217.406151,67.6559893 Z M225.059047,90.0157223 C226.007288,89.8141676 226.939381,90.4194759 227.140935,91.3677163 C227.34249,92.3159567 226.737182,93.2480498 225.788941,93.4496046 L217.493624,95.2128287 C216.545383,95.4143835 215.61329,94.8090751 215.411736,93.8608347 C215.210181,92.9125943 215.815489,91.9805012 216.76373,91.7789465 L225.059047,90.0157223 Z"/>
    <filter id="logo-e" width="147.1%" height="108.9%" x="-23.6%" y="-4.5%" filterUnits="objectBoundingBox">
      <feGaussianBlur in="SourceGraphic" stdDeviation="3"/>
    </filter>
    <filter id="logo-f" width="123.9%" height="104.8%" x="-11.9%" y="-2.4%" filterUnits="objectBoundingBox">
      <feGaussianBlur in="SourceGraphic" stdDeviation="1.5"/>
    </filter>
    <filter id="logo-g" width="123.8%" height="105%" x="-11.9%" y="-2.5%" filterUnits="objectBoundingBox">
      <feGaussianBlur in="SourceGraphic" stdDeviation="1.5"/>
    </filter>
    <filter id="logo-h" width="412%" height="132.4%" x="-156%" y="-16.2%" filterUnits="objectBoundingBox">
      <feGaussianBlur in="SourceGraphic" stdDeviation="12"/>
    </filter>
    <filter id="logo-i" width="218.1%" height="112%" x="-59%" y="-6%" filterUnits="objectBoundingBox">
      <feGaussianBlur in="SourceGraphic" stdDeviation="4.5"/>
    </filter>
    <polygon id="logo-j" points="19.082 0 19.902 117.262 39.509 116.969"/>
    <polygon id="logo-k" points="1.103 0 .229 116.847 19.956 116.847"/>
    <polygon id="logo-l" points="20.093 0 20.149 116.761 40.206 116.761"/>
    <polygon id="logo-m" points=".873 0 .476 116.693 20.444 116.693"/>
  </defs>
  <g fill="none" fill-rule="evenodd">
    <circle cx="128" cy="128" r="125" fill="#FFF" transform="translate(.5 .5)"/>
    <g transform="translate(3.5 3.5)">
      <mask id="logo-b" fill="#fff">
        <use xlink:href="#logo-a"/>
      </mask>
      <g mask="url(#logo-b)">
        <g transform="translate(-6.474 -6.474)">
          <path fill="#D8D8D8" d="M131.723108,263.446215 C204.471771,263.446215 263.446215,204.471771 263.446215,131.723108 C263.446215,58.9744441 204.471771,0 131.723108,0 C58.9744441,0 0,58.9744441 0,131.723108 C0,204.471771 58.9744441,263.446215 131.723108,263.446215 Z"/>
          <circle cx="131.723" cy="131.723" r="120.893" fill="#FFF"/>
          <g transform="translate(16.434 14.94)">
            <g opacity=".5">
              <use fill="#DBDBDB" xlink:href="#logo-c"/>
              <use fill="url(#logo-d)" xlink:href="#logo-c"/>
            </g>
            <path fill="#DCDCDC" d="M113.216761,1.75529863 L113.216761,1.75529863 C113.216761,0.785873963 114.002635,1.78080421e-16 114.97206,0 C115.941485,-1.78080421e-16 116.727359,0.785873963 116.727359,1.75529863 L116.727359,1.75529863 L116.727359,22.8121141 C116.727359,23.7815387 115.941485,24.5674127 114.97206,24.5674127 C114.002635,24.5674127 113.216761,23.7815387 113.216761,22.8121141 L113.216761,1.75529863 Z M136.889255,3.87377851 C137.090809,2.9255381 138.022902,2.32022976 138.971143,2.52178448 C139.919383,2.7233392 140.524692,3.65543231 140.323137,4.60367272 L135.945179,25.2003462 C135.743624,26.1485866 134.811531,26.753895 133.863291,26.5523402 C132.91505,26.3507855 132.309742,25.4186924 132.511297,24.470452 L136.889255,3.87377851 Z M159.603861,10.8665246 C159.998162,9.98091114 161.035737,9.58262329 161.921351,9.97692382 C162.806964,10.3712244 163.205252,11.4087997 162.810951,12.2944132 L154.246373,31.5307713 C153.852073,32.4163848 152.814497,32.8146726 151.928884,32.4203721 C151.04327,32.0260715 150.644982,30.9884962 151.039283,30.1028827 L159.603861,10.8665246 Z M180.367844,22.4279205 C180.937658,21.6436394 182.035368,21.4697792 182.819649,22.0395927 C183.60393,22.6094062 183.77779,23.7071167 183.207977,24.4913977 L170.831091,41.5267193 C170.261278,42.3110003 169.163567,42.4848606 168.379286,41.915047 C167.595005,41.3452335 167.421145,40.247523 167.990959,39.463242 L180.367844,22.4279205 Z M198.273717,38.0526775 C198.99414,37.4040058 200.104011,37.4621716 200.752682,38.1825945 C201.401354,38.9030175 201.343188,40.0128879 200.622765,40.6615597 L184.974502,54.7513193 C184.254079,55.399991 183.144209,55.3418252 182.495537,54.6214023 C181.846865,53.9009794 181.905031,52.7911089 182.625454,52.1424371 L182.625454,52.1424371 L198.273717,38.0526775 Z M212.538908,57.0579188 C213.378455,56.5732065 214.451979,56.8608564 214.936691,57.7004027 C215.421403,58.5399491 215.133753,59.6134729 214.294207,60.0981852 L196.05847,70.626593 C195.218924,71.1113053 194.1454,70.8236555 193.660687,69.9841091 C193.175975,69.1445627 193.463625,68.0710389 194.303171,67.5863266 L212.538908,57.0579188 Z M222.53996,78.6130243 C223.461938,78.3134556 224.452197,78.8180178 224.751765,79.7399954 C225.051334,80.6619731 224.546772,81.652232 223.624794,81.9518007 L203.598573,88.4587145 C202.676595,88.7582832 201.686336,88.2537211 201.386767,87.3317434 C201.087199,86.4097658 201.591761,85.4195068 202.513739,85.1199381 L222.53996,78.6130243 Z M227.839778,101.775932 C228.803892,101.6746 229.667607,102.374023 229.76894,103.338137 C229.870272,104.302251 229.17085,105.165966 228.206736,105.267298 L207.265272,107.468335 C206.301158,107.569667 205.437443,106.870245 205.33611,105.906131 C205.234778,104.942016 205.9342,104.078301 206.898314,103.976969 L227.839778,101.775932 Z M228.206736,125.534313 C229.17085,125.635645 229.870272,126.49936 229.76894,127.463474 C229.667607,128.427588 228.803892,129.127011 227.839778,129.025679 L206.898314,126.824642 C205.9342,126.72331 205.234778,125.859594 205.33611,124.89548 C205.437443,123.931366 206.301158,123.231944 207.265272,123.333276 L207.265272,123.333276 L228.206736,125.534313 Z M223.624794,148.84981 C224.546772,149.149379 225.051334,150.139638 224.751765,151.061616 C224.452197,151.983593 223.461938,152.488155 222.53996,152.188587 L202.513739,145.681673 C201.591761,145.382104 201.087199,144.391845 201.386767,143.469868 C201.686336,142.54789 202.676595,142.043328 203.598573,142.342896 L223.624794,148.84981 Z M214.294207,170.703426 C215.133753,171.188138 215.421403,172.261662 214.936691,173.101208 C214.451979,173.940755 213.378455,174.228404 212.538908,173.743692 L194.303171,163.215284 C193.463625,162.730572 193.175975,161.657048 193.660688,160.817502 C194.1454,159.977956 195.218924,159.690306 196.05847,160.175018 L214.294207,170.703426 Z M200.622765,190.140051 C201.343188,190.788723 201.401354,191.898594 200.752683,192.619016 C200.104011,193.339439 198.99414,193.397605 198.273717,192.748934 L182.625454,178.659174 C181.905031,178.010502 181.846865,176.900632 182.495537,176.180209 C183.144209,175.459786 184.254079,175.40162 184.974502,176.050292 L200.622765,190.140051 Z M183.207977,206.310213 C183.777791,207.094494 183.60393,208.192205 182.819649,208.762018 C182.035368,209.331832 180.937658,209.157972 180.367844,208.373691 L167.990959,191.338369 C167.421145,190.554088 167.595005,189.456377 168.379286,188.886564 C169.163567,188.31675 170.261278,188.490611 170.831091,189.274892 L170.831091,189.274892 L183.207977,206.310213 Z M162.810952,218.507198 C163.205252,219.392811 162.806964,220.430387 161.921351,220.824687 C161.035737,221.218988 159.998162,220.8207 159.603861,219.935086 L151.039283,200.698728 C150.644982,199.813115 151.04327,198.775539 151.928884,198.381239 C152.814497,197.986938 153.852073,198.385226 154.246373,199.27084 L162.810952,218.507198 Z M140.323137,226.197938 C140.524692,227.146179 139.919383,228.078272 138.971143,228.279827 C138.022903,228.481381 137.090809,227.876073 136.889255,226.927833 L136.889255,226.927833 L132.511297,206.331159 C132.309742,205.382919 132.91505,204.450825 133.863291,204.249271 C134.811531,204.047716 135.743624,204.653024 135.945179,205.601265 L140.323137,226.197938 Z M116.727359,229.046312 C116.727359,230.015737 115.941485,230.801611 114.97206,230.801611 C114.002635,230.801611 113.216761,230.015737 113.216761,229.046312 L113.216761,207.989497 C113.216761,207.020072 114.002635,206.234198 114.97206,206.234198 C115.941485,206.234198 116.727359,207.020072 116.727359,207.989497 L116.727359,229.046312 Z M93.0548654,226.927833 C92.8533107,227.876073 91.9212175,228.481381 90.9729771,228.279827 C90.0247367,228.078272 89.4194284,227.146179 89.6209831,226.197938 L93.9989412,205.601265 C94.2004959,204.653024 95.132589,204.047716 96.0808294,204.249271 C97.0290699,204.450826 97.6343782,205.382919 97.4328235,206.331159 L93.0548654,226.927833 Z M70.3402587,219.935086 C69.9459581,220.8207 68.9083828,221.218988 68.0227693,220.824687 C67.1371558,220.430387 66.738868,219.392811 67.1331685,218.507198 L75.6977469,199.27084 C76.0920475,198.385226 77.1296228,197.986938 78.0152363,198.381239 C78.9008498,198.77554 79.2991376,199.813115 78.9048371,200.698728 L70.3402587,219.935086 Z M49.5762759,208.373691 C49.0064623,209.157972 47.9087518,209.331832 47.1244708,208.762018 C46.3401898,208.192205 46.1663295,207.094494 46.736143,206.310213 L46.736143,206.310213 L59.1130286,189.274892 C59.6828421,188.490611 60.7805526,188.316751 61.5648337,188.886564 C62.3491147,189.456378 62.5229749,190.554088 61.9531614,191.338369 L49.5762759,208.373691 Z M31.6704026,192.748934 C30.9499797,193.397605 29.8401092,193.339439 29.1914375,192.619017 C28.5427658,191.898594 28.6009316,190.788723 29.3213545,190.140051 L44.969618,176.050292 C45.6900409,175.40162 46.7999114,175.459786 47.4485831,176.180209 C48.0972548,176.900632 48.039089,178.010502 47.318666,178.659174 L31.6704026,192.748934 Z M17.4052115,173.743692 C16.5656651,174.228405 15.4921413,173.940755 15.007429,173.101208 C14.5227167,172.261662 14.8103665,171.188138 15.6499129,170.703426 L33.88565,160.175018 C34.7251963,159.690306 35.7987201,159.977956 36.2834325,160.817502 C36.7681448,161.657048 36.480495,162.730572 35.6409486,163.215285 L17.4052115,173.743692 Z M7.40415986,152.188587 C6.48218221,152.488155 5.49192325,151.983593 5.19235455,151.061616 C4.89278586,150.139638 5.397348,149.149379 6.31932564,148.84981 L26.3455472,142.342897 C27.2675248,142.043328 28.2577838,142.54789 28.5573525,143.469868 C28.8569212,144.391845 28.352359,145.382104 27.4303814,145.681673 L7.40415986,152.188587 Z M2.10434161,129.025679 L2.10434161,129.025679 C1.14022755,129.127011 0.276512494,128.427589 0.175180024,127.463474 L0.175180024,127.463474 L0.175180024,127.463474 C0.0738475535,126.49936 0.773270219,125.635645 1.73738427,125.534313 L1.73738427,125.534313 L22.6788483,123.333276 C23.6429623,123.231944 24.5066774,123.931367 24.6080098,124.895481 C24.7093423,125.859595 24.0099196,126.72331 23.0458056,126.824642 L2.10434161,129.025679 Z M1.73738425,105.267298 L1.73738425,105.267298 C0.773270196,105.165966 0.0738475303,104.302251 0.175180001,103.338137 L0.175180001,103.338137 L0.175180001,103.338137 C0.276512471,102.374023 1.14022753,101.6746 2.10434158,101.775933 L2.10434158,101.775933 L23.0458056,103.976969 C24.0099196,104.078302 24.7093423,104.942017 24.6080098,105.906131 C24.5066773,106.870245 23.6429623,107.569667 22.6788482,107.468335 L1.73738425,105.267298 Z M6.31932558,81.9518009 C5.39734793,81.6522322 4.89278579,80.6619732 5.19235449,79.7399956 C5.49192318,78.8180179 6.48218215,78.3134558 7.40415979,78.6130245 L27.4303813,85.1199383 C28.352359,85.419507 28.8569211,86.4097659 28.5573524,87.3317436 C28.2577837,88.2537212 27.2675247,88.7582834 26.3455471,88.4587147 L6.31932558,81.9518009 Z M15.6499128,60.0981854 C14.8103664,59.613473 14.5227165,58.5399492 15.0074289,57.7004029 C15.4921412,56.8608565 16.565665,56.5732066 17.4052114,57.057919 L35.6409485,67.5863267 C36.4804949,68.071039 36.7681447,69.1445628 36.2834324,69.9841092 C35.79872,70.8236556 34.7251962,71.1113054 33.8856498,70.6265931 L15.6499128,60.0981854 Z M29.3213544,40.6615598 C28.6009315,40.0128881 28.5427656,38.9030176 29.1914373,38.1825946 C29.840109,37.4621717 30.9499795,37.4040059 31.6704025,38.0526776 L47.3186659,52.1424373 C48.0390888,52.791109 48.0972547,53.9009795 47.4485829,54.6214024 C46.7999112,55.3418253 45.6900407,55.3999912 44.9696178,54.7513194 L44.9696178,54.7513194 L29.3213544,40.6615598 Z M46.7361428,24.4913978 C46.1663293,23.7071168 46.3401896,22.6094063 47.1244706,22.0395928 C47.9087516,21.4697792 49.0064622,21.6436395 49.5762757,22.4279205 L61.9531612,39.4632421 C62.5229748,40.2475231 62.3491145,41.3452336 61.5648335,41.9150471 C60.7805524,42.4848606 59.6828419,42.3110004 59.1130284,41.5267194 L46.7361428,24.4913978 Z M67.1331683,12.2944132 C66.7388678,11.4087997 67.1371556,10.3712244 68.0227691,9.97692388 C68.9083826,9.58262335 69.9459579,9.9809112 70.3402585,10.8665247 L78.9048369,30.1028828 C79.2991374,30.9884963 78.9008496,32.0260716 78.0152361,32.4203721 C77.1296226,32.8146727 76.0920473,32.4163848 75.6977467,31.5307713 L67.1331683,12.2944132 Z M89.6209829,4.60367275 C89.4194282,3.65543234 90.0247365,2.72333923 90.9729769,2.52178451 C91.9212173,2.32022979 92.8533104,2.92553813 93.0548652,3.87377854 L97.4328233,24.470452 C97.634378,25.4186924 97.0290696,26.3507856 96.0808292,26.5523403 C95.1325888,26.753895 94.2004957,26.1485866 93.998941,25.2003462 L93.998941,25.2003462 L89.6209829,4.60367275 Z"/>
          </g>
          <g opacity=".1" transform="translate(40.339 52.789)">
            <polygon fill="#274B8A" points="89.946 -22.39 74.331 81.939 103.714 178.75 112.514 79.909" filter="url(#logo-e)" style="mix-blend-mode:darken" transform="rotate(51 93.423 78.18)"/>
            <polygon fill="#274B8A" points="86.261 -13.925 71.497 80.37 99.158 174.657 109.225 77.972" filter="url(#logo-f)" style="mix-blend-mode:darken" transform="rotate(51 90.36 80.366)"/>
            <polygon fill="#2A2929" fill-opacity=".696" points="91.205 -11.769 74.145 81.68 103.387 168.261 111.971 79.209" filter="url(#logo-g)" style="mix-blend-mode:darken" transform="rotate(51 93.058 78.246)"/>
            <path fill="#101736" fill-opacity=".594" d="M83.9280344,-23.2827557 C80.4952598,-24.6998409 83.8387943,-0.621212571 85.9729595,29.7027824 C90.591028,95.3201405 88.2779253,196.972925 99.7895564,198.908055 C100.524329,184.031083 105.524696,84.5039599 105.524696,84.5039599 C105.524696,84.5039599 87.7124962,-8.51777722 83.9280344,-23.2827557 Z" filter="url(#logo-h)" style="mix-blend-mode:darken" transform="rotate(51 93.988 87.783)"/>
            <polygon fill="#2A2929" fill-opacity=".594" points="94.35 -3.366 84.437 -30.302 100.193 194.108 105.36 176.448 107.304 82.589" filter="url(#logo-i)" style="mix-blend-mode:darken" transform="rotate(51 95.87 81.903)"/>
          </g>
          <g transform="rotate(47 59.639 251.83)">
            <use fill="#CF1413" xlink:href="#logo-j"/>
            <path stroke="#FD413D" stroke-opacity=".753" stroke-width=".5" d="M19.3534241,3.00504645 L20.1500196,117.008367 L39.2127138,116.723656 L19.3534241,3.00504645 Z"/>
            <g transform="matrix(-1 0 0 1 20.186 0)">
              <use fill="#FE5351" xlink:href="#logo-k"/>
              <path stroke="#FC6B69" stroke-width=".5" d="M1.3309274,2.98075617 L0.481089194,116.59678 L19.6628535,116.59678 L1.3309274,2.98075617 Z"/>
            </g>
          </g>
          <g transform="rotate(47 -74.319 193.57)">
            <g transform="matrix(1 0 0 -1 0 116.761)">
              <use fill="#ABABAB" xlink:href="#logo-l"/>
              <path stroke="#C6C6C6" stroke-width=".5" d="M20.3448163,2.93214844 L20.3991701,116.511419 L39.9097217,116.511416 L20.3448163,2.93214844 Z"/>
            </g>
            <g transform="rotate(180 10.46 58.346)">
              <use fill="#EFEFEF" xlink:href="#logo-m"/>
              <path stroke="#FFF" stroke-width=".5" d="M1.11326071,2.94249493 L0.727101817,116.442993 L20.1482697,116.442993 L1.11326071,2.94249493 Z"/>
            </g>
          </g>
        </g>
      </g>
    </g>
  </g>
</svg>
