<svg xmlns="http://www.w3.org/2000/svg" xmlns:xlink="http://www.w3.org/1999/xlink" width="640" height="360" viewBox="0 0 640 360">
  <defs>
    <linearGradient id="picture-b" x1="50%" x2="50%" y1="0%" y2="100%">
      <stop offset="0%" stop-color="#B4EC51"/>
      <stop offset="100%" stop-color="#429321"/>
    </linearGradient>
    <rect id="picture-a" width="640" height="360"/>
    <linearGradient id="picture-c" x1="14.554%" x2="5.225%" y1="126.936%" y2="1.533%">
      <stop offset="0%" stop-color="#74628F"/>
      <stop offset="33.77%" stop-color="#B77999"/>
      <stop offset="100%" stop-color="#FFBC7A"/>
    </linearGradient>
    <path id="picture-e" d="M0,0 L0,274.99132 C0,277.757538 2.23261365,280 5.0068181,280 L594.993182,280 C597.758371,280 600,277.7666 600,274.99132 L600,0 L0,0 Z"/>
    <linearGradient id="picture-g" x1="50%" x2="50%" y1="0%" y2="100%">
      <stop offset="0%" stop-color="#ECECEC"/>
      <stop offset="100%" stop-color="#D3D3D3"/>
    </linearGradient>
    <linearGradient id="picture-h" x1="50%" x2="50%" y1="0%" y2="100%">
      <stop offset="0%" stop-color="#F1F1F1"/>
      <stop offset="100%" stop-color="#FFF"/>
    </linearGradient>
    <rect id="picture-i" width="480" height="27" x="97" y="14" rx="3"/>
    <linearGradient id="picture-k" x1="50%" x2="50%" y1="0%" y2="100%">
      <stop offset="0%" stop-color="#FFF" stop-opacity=".5"/>
      <stop offset="100%" stop-opacity=".15"/>
    </linearGradient>
    <path id="picture-j" d="M147.405556,73.9844444 C147.405556,74.6110234 146.896952,75.1111111 146.269558,75.1111111 L140.842664,75.1111111 C140.211812,75.1111111 139.706667,74.6066853 139.706667,73.9844444 C139.706667,73.3578655 140.21527,72.8577778 140.842664,72.8577778 L146.269558,72.8577778 C146.90041,72.8577778 147.405556,73.3622036 147.405556,73.9844444 Z M145.795101,89.3068935 C145.664828,89.9197803 145.063365,90.3031952 144.449681,90.1727527 L139.141378,89.044438 C138.524311,88.9132765 138.13508,88.3148479 138.264452,87.7062045 C138.394725,87.0933178 138.996188,86.7099028 139.609872,86.8403454 L144.918175,87.9686601 C145.535241,88.0998216 145.924472,88.6982502 145.795101,89.3068935 Z M141.034123,103.959678 C140.77927,104.532086 140.111234,104.782072 139.538081,104.526887 L134.580367,102.319571 C134.004055,102.06298 133.74775,101.396703 134.000838,100.828258 C134.255691,100.25585 134.923727,100.005864 135.49688,100.261049 L140.454594,102.468365 C141.030906,102.724956 141.287211,103.391233 141.034123,103.959678 Z M133.330698,117.302401 C132.962404,117.809314 132.256991,117.914944 131.749419,117.546171 L127.35897,114.356323 C126.8486,113.985517 126.736422,113.280511 127.102166,112.777108 C127.47046,112.270195 128.175873,112.164565 128.683446,112.533338 L133.073895,115.723186 C133.584265,116.093991 133.696442,116.798998 133.330698,117.302401 Z M123.021504,128.751922 C122.555865,129.171185 121.843905,129.127843 121.424096,128.661598 L117.792796,124.62863 C117.370673,124.159816 117.407526,123.446892 117.869942,123.030532 C118.33558,122.611269 119.04754,122.654611 119.467349,123.120856 L123.098649,127.153824 C123.520772,127.622638 123.483919,128.335561 123.021504,128.751922 Z M110.557101,137.80784 C110.014467,138.12113 109.327077,137.93071 109.01338,137.387371 L106.299933,132.687543 C105.984507,132.141209 106.16878,131.451527 106.707656,131.140407 C107.25029,130.827118 107.93768,131.017537 108.251377,131.560876 L110.964824,136.260704 C111.28025,136.807038 111.095977,137.49672 110.557101,137.80784 Z M96.4822434,144.074371 C95.8863314,144.267994 95.2535526,143.938819 95.0596772,143.342132 L93.3826748,138.180849 C93.1877308,137.580873 93.5113697,136.944575 94.1031559,136.752292 C94.6990679,136.558669 95.3318467,136.887844 95.5257221,137.484531 L97.2027245,142.645814 C97.3976685,143.245789 97.0740296,143.882088 96.4822434,144.074371 Z M81.4120706,147.277635 C80.7889241,147.34313 80.2384124,146.889586 80.1728318,146.265629 L79.605567,140.868464 C79.539625,140.241068 79.9884854,139.685963 80.6073176,139.620921 C81.2304641,139.555426 81.7809758,140.00897 81.8465563,140.632927 L82.4138212,146.030092 C82.4797632,146.657488 82.0309027,147.212593 81.4120706,147.277635 Z M66.0052211,147.277635 C65.3820746,147.212139 64.93789,146.654049 65.0034706,146.030092 L65.5707354,140.632927 C65.6366774,140.005531 66.191142,139.555879 66.8099742,139.620921 C67.4331207,139.686417 67.8773053,140.244507 67.8117248,140.868464 L67.2444599,146.265629 C67.1785179,146.893025 66.6240533,147.342677 66.0052211,147.277635 Z M50.9350483,144.074371 C50.3391363,143.880747 50.0206918,143.242501 50.2145672,142.645814 L51.8915696,137.484531 C52.0865136,136.884555 52.7223496,136.560009 53.3141358,136.752292 C53.9100478,136.945916 54.2284924,137.584162 54.0346169,138.180849 L52.3576146,143.342132 C52.1626706,143.942108 51.5268345,144.266654 50.9350483,144.074371 Z M36.860191,137.80784 C36.3175577,137.494551 36.1387708,136.804044 36.4524678,136.260704 L39.1659147,131.560877 C39.4813407,131.014543 40.1707591,130.829287 40.7096354,131.140407 C41.2522687,131.453697 41.4310557,132.144204 41.1173586,132.687543 L38.4039117,137.387371 C38.0884858,137.933705 37.3990674,138.118961 36.860191,137.80784 Z M24.395788,128.751922 C23.9301491,128.332658 23.8988336,127.620068 24.3186422,127.153824 L27.9499429,123.120856 C28.3720653,122.652041 29.0849351,122.614172 29.5473502,123.030532 C30.0129891,123.449795 30.0443045,124.162385 29.6244959,124.62863 L25.9931952,128.661598 C25.5710729,129.130412 24.858203,129.168282 24.395788,128.751922 Z M14.0865935,117.302401 C13.7182996,116.795488 13.8358242,116.091959 14.3433967,115.723186 L18.733846,112.533338 C19.244216,112.162532 19.9493814,112.273704 20.3151254,112.777108 C20.6834193,113.284021 20.5658946,113.98755 20.0583221,114.356323 L15.6678728,117.546171 C15.1575029,117.916976 14.4523374,117.805805 14.0865935,117.302401 Z M6.38316873,103.959678 C6.12831611,103.38727 6.38954447,102.723549 6.96269753,102.468365 L11.9204117,100.261049 C12.4967236,100.004458 13.1633656,100.259813 13.4164537,100.828258 C13.6713063,101.400666 13.410078,102.064387 12.8369249,102.319571 L7.87921077,104.526888 C7.30289882,104.783478 6.63625687,104.528123 6.38316873,103.959678 Z M1.62219042,89.3068936 C1.49191732,88.6940069 1.88543248,88.0991027 2.49911654,87.9686601 L7.80741964,86.8403455 C8.42448598,86.709184 9.02346897,87.0975612 9.15284011,87.7062046 C9.2831132,88.3190913 8.88959805,88.9139955 8.27591399,89.0444381 L2.96761089,90.1727527 C2.35054455,90.3039142 1.75156156,89.915537 1.62219042,89.3068936 Z M0.0117361111,73.9844445 C0.0117361111,73.3578655 0.520339547,72.8577778 1.14773368,72.8577778 L6.57462743,72.8577778 C7.2054794,72.8577778 7.710625,73.3622037 7.710625,73.9844445 C7.710625,74.6110235 7.20202156,75.1111112 6.57462743,75.1111112 L1.14773368,75.1111112 C0.516881714,75.1111112 0.0117361111,74.6066853 0.0117361111,73.9844445 Z M1.6221904,58.6619954 C1.75246349,58.0491087 2.3539268,57.6656937 2.96761086,57.7961363 L8.27591397,58.9244509 C8.8929803,59.0556124 9.28221123,59.654041 9.15284009,60.2626844 C9.022567,60.8755711 8.42110369,61.2589861 7.80741962,61.1285435 L2.49911652,60.0002289 C1.88205018,59.8690674 1.49281926,59.2706388 1.6221904,58.6619954 Z M6.38316869,44.0092108 C6.63802132,43.4368025 7.30605767,43.1868173 7.87921073,43.4420015 L12.8369249,45.649318 C13.4132368,45.9059086 13.6695418,46.5721858 13.4164537,47.1406311 C13.161601,47.7130394 12.4935647,47.9630246 11.9204116,47.7078404 L6.96269749,45.5005239 C6.38638554,45.2439333 6.13008055,44.5776561 6.38316869,44.0092108 Z M14.0865934,30.6664878 C14.4548873,30.1595748 15.1603003,30.0539449 15.6678728,30.422718 L20.0583221,33.6125661 C20.568692,33.9833716 20.6808693,34.6883778 20.3151253,35.1917812 C19.9468315,35.6986942 19.2414185,35.804324 18.733846,35.435551 L14.3433967,32.2457029 C13.8330267,31.8748974 13.7208494,31.1698912 14.0865934,30.6664878 Z M24.3957879,19.2169674 C24.8614268,18.7977042 25.5733865,18.8410462 25.9931951,19.3072909 L29.6244958,23.3402589 C30.0466182,23.8090733 30.0097651,24.5219964 29.5473501,24.9383568 C29.0817112,25.35762 28.3697515,25.314278 27.9499428,24.8480332 L24.3186421,20.8150652 C23.8965198,20.3462509 23.9333729,19.6333277 24.3957879,19.2169674 Z M36.8601909,10.1610485 C37.4028242,9.84775899 38.0902146,10.0381786 38.4039117,10.5815179 L41.1173585,15.2813457 C41.4327845,15.8276796 41.2485117,16.5173614 40.7096354,16.8284818 C40.1670021,17.1417713 39.4796117,16.9513517 39.1659146,16.4080124 L36.4524677,11.7081846 C36.1370418,11.1618507 36.3213146,10.4721689 36.8601909,10.1610485 Z M50.9350482,3.89451824 C51.5309602,3.70089469 52.163739,4.03006971 52.3576145,4.62675699 L54.0346169,9.78803965 C54.2295608,10.3880155 53.9059219,11.0243137 53.3141357,11.2165967 C52.7182237,11.4102202 52.085445,11.0810452 51.8915695,10.4843579 L50.2145671,5.32307528 C50.0196231,4.72309941 50.343262,4.08680123 50.9350482,3.89451824 Z M66.005221,0.691254112 C66.6283675,0.625758776 67.1788792,1.07930263 67.2444598,1.70325983 L67.8117247,7.10042449 C67.8776666,7.72782058 67.4288062,8.28292581 66.8099741,8.34796768 C66.1868276,8.41346302 65.6363159,7.95991916 65.5707353,7.33596196 L65.0034705,1.9387973 C64.9375285,1.31140121 65.3863889,0.756295989 66.005221,0.691254112 Z M81.4120705,0.691254097 C82.035217,0.756749433 82.4794016,1.31484009 82.4138211,1.93879729 L81.8465562,7.33596195 C81.7806142,7.96335804 81.2261496,8.41300954 80.6073175,8.34796767 C79.984171,8.28247233 79.5399863,7.72438168 79.6055669,7.10042448 L80.1728317,1.70325982 C80.2387737,1.07586372 80.7932384,0.62621222 81.4120705,0.691254097 Z M96.4822433,3.8945182 C97.0781553,4.08814175 97.3965999,4.72638796 97.2027244,5.32307524 L95.525722,10.4843579 C95.330778,11.0843338 94.694942,11.4088796 94.1031558,11.2165966 C93.5072438,11.0229731 93.1887992,10.3847269 93.3826747,9.78803961 L95.0596771,4.62675694 C95.254621,4.02678107 95.8904571,3.70223521 96.4822433,3.8945182 Z M110.557101,10.1610484 C111.099734,10.4743379 111.278521,11.1648452 110.964824,11.7081845 L108.251377,16.4080123 C107.935951,16.9543462 107.246533,17.1396022 106.707656,16.8284818 C106.165023,16.5151923 105.986236,15.8246849 106.299933,15.2813457 L109.01338,10.5815178 C109.328806,10.035184 110.018224,9.84992799 110.557101,10.1610484 Z M123.021504,19.2169673 C123.487143,19.6362304 123.518458,20.3488204 123.098649,20.8150651 L119.467349,24.8480331 C119.045226,25.3168475 118.332357,25.3547171 117.869941,24.9383567 C117.404303,24.5190935 117.372987,23.8065036 117.792796,23.3402588 L121.424096,19.3072908 C121.846219,18.8384765 122.559089,18.8006069 123.021504,19.2169673 Z M133.330698,30.6664877 C133.698992,31.1734007 133.581467,31.8769298 133.073895,32.2457028 L128.683446,35.4355509 C128.173076,35.8063564 127.46791,35.6951844 127.102166,35.191781 C126.733872,34.684868 126.851397,33.981339 127.35897,33.6125659 L131.749419,30.4227178 C132.259789,30.0519124 132.964954,30.1630843 133.330698,30.6664877 Z M141.034123,44.0092107 C141.288976,44.5816191 141.027747,45.2453396 140.454594,45.5005237 L135.49688,47.7078403 C134.920568,47.9644309 134.253926,47.7090762 134.000838,47.1406309 C133.745985,46.5682225 134.007214,45.904502 134.580367,45.6493179 L139.538081,43.4420013 C140.114393,43.1854107 140.781035,43.4407654 141.034123,44.0092107 Z M145.795101,58.6619952 C145.925374,59.274882 145.531859,59.8697861 144.918175,60.0002287 L139.609872,61.1285434 C138.992806,61.2597049 138.393823,60.8713276 138.264452,60.2626842 C138.134178,59.6497975 138.527694,59.0548934 139.141378,58.9244508 L144.449681,57.7961361 C145.066747,57.6649746 145.66573,58.0533519 145.795101,58.6619952 Z"/>
    <filter id="picture-l" width="247%" height="127.9%" x="-73.5%" y="-13.9%" filterUnits="objectBoundingBox">
      <feGaussianBlur in="SourceGraphic" stdDeviation="6"/>
    </filter>
    <filter id="picture-m" width="174.4%" height="114.9%" x="-37.2%" y="-7.4%" filterUnits="objectBoundingBox">
      <feGaussianBlur in="SourceGraphic" stdDeviation="3"/>
    </filter>
    <filter id="picture-n" width="174.2%" height="115.6%" x="-37.1%" y="-7.8%" filterUnits="objectBoundingBox">
      <feGaussianBlur in="SourceGraphic" stdDeviation="3"/>
    </filter>
    <filter id="picture-o" width="1072.8%" height="201%" x="-486.4%" y="-50.5%" filterUnits="objectBoundingBox">
      <feGaussianBlur in="SourceGraphic" stdDeviation="24"/>
    </filter>
    <filter id="picture-p" width="468.1%" height="137.5%" x="-184.1%" y="-18.8%" filterUnits="objectBoundingBox">
      <feGaussianBlur in="SourceGraphic" stdDeviation="9"/>
    </filter>
    <polygon id="picture-q" points="12.299 0 12.828 75.19 25.466 75.002"/>
    <polygon id="picture-r" points=".711 0 .148 74.923 12.863 74.923"/>
    <polygon id="picture-s" points="13.452 0 13.487 74.827 26.28 74.827"/>
    <polygon id="picture-t" points="1.192 0 .939 74.783 13.675 74.783"/>
  </defs>
  <g fill="none" fill-rule="evenodd">
    <mask id="picture-d" fill="#fff">
      <use xlink:href="#picture-a"/>
    </mask>
    <use fill="url(#picture-b)" xlink:href="#picture-a"/>
    <rect width="640" height="360" fill="url(#picture-c)" mask="url(#picture-d)"/>
    <g mask="url(#picture-d)">
      <g transform="translate(20 39)">
        <g opacity=".5" transform="translate(0 54)">
          <mask id="picture-f" fill="#fff">
            <use xlink:href="#picture-e"/>
          </mask>
          <use fill="#FFF" opacity=".9" xlink:href="#picture-e"/>
          <path fill="#FFF" d="M0,0 L0,274.99132 C0,277.757538 2.23261365,280 5.0068181,280 L594.993182,280 C597.758371,280 600,277.7666 600,274.99132 L600,0 L0,0 Z" mask="url(#picture-f)" opacity=".8"/>
          <path fill="#FFF" d="M0,0 L0,274.99132 C0,277.757538 2.23261365,280 5.0068181,280 L594.993182,280 C597.758371,280 600,277.7666 600,274.99132 L600,0 L0,0 Z" mask="url(#picture-f)" opacity=".2" style="mix-blend-mode:overlay"/>
        </g>
        <path fill="url(#picture-g)" d="M5.0068181,0 C2.24162882,0 0,2.24136404 0,5.00226249 L0,55 L600,55 L600,5.00226249 C600,2.2395892 597.767386,0 594.993182,0 L5.0068181,0 Z"/>
        <circle cx="25.5" cy="27.5" r="7.5" fill="#E96E4C"/>
        <path fill="#E6A935" d="M48.5,35 C52.6421356,35 56,31.6421356 56,27.5 C56,23.3578644 52.6421356,20 48.5,20 C44.3578644,20 41,23.3578644 41,27.5 C41,31.6421356 44.3578644,35 48.5,35 Z"/>
        <circle cx="71.5" cy="27.5" r="7.5" fill="#85C33D"/>
        <g opacity=".85">
          <use fill="url(#picture-h)" xlink:href="#picture-i"/>
          <rect width="479" height="26" x="97.5" y="14.5" stroke="#B7B7B7" rx="3"/>
        </g>
        <g transform="translate(216 96)">
          <path fill="#D8D8D8" d="M84.5,169 C131.168061,169 169,131.168061 169,84.5 C169,37.8319386 131.168061,0 84.5,0 C37.8319386,0 0,37.8319386 0,84.5 C0,131.168061 37.8319386,169 84.5,169 Z"/>
          <circle cx="84.5" cy="84.5" r="77.552" fill="#FFF"/>
          <g transform="translate(11 10)">
            <g opacity=".5">
              <use fill="#DBDBDB" xlink:href="#picture-j"/>
              <use fill="url(#picture-k)" xlink:href="#picture-j"/>
            </g>
            <path fill="#DCDCDC" d="M73.7966667,0 C74.4232456,0 74.9233333,0.507878883 74.9233333,1.13437923 L74.9233333,14.6389541 C74.9233333,15.2663911 74.4189075,15.7733333 73.7966667,15.7733333 C73.1700877,15.7733333 72.67,15.2654545 72.67,14.6389541 L72.67,1.13437923 C72.67,0.506942267 73.1744258,0 73.7966667,0 Z M89.2013158,1.61909387 C89.8142025,1.74936696 90.1977681,2.35012155 90.0675114,2.96293136 L87.2597524,16.1723989 C87.1293009,16.7861248 86.5304987,17.1771132 85.9218554,17.047742 C85.3089687,16.9174689 84.925403,16.3167143 85.0556598,15.7039045 L87.8634188,2.49443702 C87.9938703,1.88071106 88.5926724,1.48972272 89.2013158,1.61909387 Z M103.932708,6.40561329 C104.505116,6.66046592 104.755396,7.32784035 104.500575,7.9001769 L99.00777,20.2372199 C98.7525684,20.8104121 98.0855604,21.0683584 97.5171152,20.8152703 C96.9447068,20.5604177 96.6944269,19.8930432 96.9492476,19.3207067 L102.442053,6.98366367 C102.697255,6.41047148 103.364263,6.15252515 103.932708,6.40561329 Z M117.34701,14.1503644 C117.853923,14.5186583 117.959979,15.2234851 117.591731,15.7303345 L109.653941,26.6557651 C109.285143,27.1633723 108.579081,27.2770031 108.075678,26.9112591 C107.568765,26.5429653 107.462709,25.8381384 107.830956,25.331289 L115.768746,14.4058584 C116.137545,13.8982513 116.843607,13.7846204 117.34701,14.1503644 Z M128.857954,24.5148644 C129.277217,24.9805033 129.234413,25.6919782 128.768833,26.1111888 L118.732978,35.1475132 C118.266701,35.5673504 117.552443,35.5316996 117.136083,35.0692845 C116.716819,34.6036456 116.759623,33.8921707 117.225204,33.4729602 L127.261058,24.4366358 C127.727335,24.0167985 128.441593,24.0524494 128.857954,24.5148644 Z M137.962455,37.046135 C138.275744,37.5887683 138.085952,38.2757964 137.543387,38.5890465 L125.848082,45.341334 C125.304706,45.6550525 124.613468,45.471678 124.302347,44.9328016 C123.989058,44.3901683 124.17885,43.7031402 124.721415,43.3898901 L136.41672,36.6376026 C136.960096,36.3238841 137.651334,36.5072586 137.962455,37.046135 Z M144.262603,51.1964994 C144.456226,51.7924114 144.12774,52.4249663 143.531903,52.6185655 L130.688289,56.7917086 C130.091561,56.9855973 129.453554,56.6625136 129.261271,56.0707274 C129.067648,55.4748154 129.396134,54.8422606 129.991971,54.6486613 L142.835585,50.4755182 C143.432313,50.2816295 144.07032,50.6047132 144.262603,51.1964994 Z M147.483051,66.3475188 C147.548547,66.9706653 147.095723,67.5211013 146.472655,67.5865884 L133.04206,68.9982009 C132.41806,69.0637859 131.861168,68.6151132 131.796126,67.9962811 C131.730631,67.3731346 132.183454,66.8226986 132.806522,66.7572115 L146.237118,65.3455991 C146.861118,65.2800141 147.41801,65.7286867 147.483051,66.3475188 Z M147.483051,81.8370211 C147.417556,82.4601676 146.860186,82.9044279 146.237118,82.8389408 L132.806522,81.4273284 C132.182523,81.3617433 131.731084,80.8070909 131.796126,80.1882588 C131.861621,79.5651123 132.418991,79.1208519 133.04206,79.186339 L146.472655,80.5979515 C147.096655,80.6635365 147.548093,81.2181889 147.483051,81.8370211 Z M144.262603,96.9880405 C144.068979,97.5839525 143.431422,97.902621 142.835585,97.7090217 L129.991971,93.5358786 C129.395243,93.3419899 129.068988,92.7055986 129.261271,92.1138125 C129.454895,91.5179004 130.092452,91.199232 130.688289,91.3928312 L143.531903,95.5659744 C144.128631,95.7598631 144.454886,96.3962543 144.262603,96.9880405 Z M137.962455,111.138405 C137.649165,111.681038 136.959285,111.860187 136.41672,111.546937 L124.721415,104.79465 C124.178039,104.480931 123.991227,103.790615 124.302347,103.251738 C124.615637,102.709105 125.305517,102.529956 125.848082,102.843206 L137.543387,109.595493 C138.086763,109.909212 138.273575,110.599529 137.962455,111.138405 Z M128.857954,123.669675 C128.438691,124.135314 127.726639,124.167115 127.261059,123.747904 L117.225204,114.71158 C116.758927,114.291742 116.719722,113.57767 117.136083,113.115255 C117.555346,112.649616 118.267397,112.617816 118.732978,113.037027 L128.768833,122.073351 C129.235109,122.493188 129.274314,123.20726 128.857954,123.669675 Z M117.34701,134.034175 C116.840097,134.402469 116.136994,134.285531 115.768746,133.778681 L107.830956,122.853251 C107.462158,122.345644 107.572274,121.639025 108.075678,121.273281 C108.582591,120.904987 109.285694,121.021925 109.653941,121.528775 L117.591731,132.454205 C117.96053,132.961813 117.850414,133.668432 117.34701,134.034175 Z M103.932708,141.778927 C103.360299,142.033779 102.696874,141.773213 102.442053,141.200876 L96.9492476,128.863833 C96.694046,128.290641 96.9486699,127.622358 97.5171152,127.36927 C98.0895236,127.114417 98.7529494,127.374983 99.00777,127.94732 L104.500575,140.284363 C104.755777,140.857555 104.501153,141.525838 103.932708,141.778927 Z M89.2013158,146.565446 C88.5884291,146.695719 87.9936756,146.302913 87.8634188,145.690103 L85.0556598,132.480635 C84.9252084,131.866909 85.3132121,131.266169 85.9218554,131.136798 C86.5347421,131.006525 87.1294957,131.399331 87.2597524,132.012141 L90.0675114,145.221609 C90.1979629,145.835335 89.8099592,146.436075 89.2013158,146.565446 Z M73.7966667,148.18454 C73.1700877,148.18454 72.67,147.676661 72.67,147.050161 L72.67,133.545586 C72.67,132.918149 73.1744259,132.411207 73.7966667,132.411207 C74.4232457,132.411207 74.9233334,132.919085 74.9233334,133.545586 L74.9233334,147.050161 C74.9233334,147.677598 74.4189075,148.18454 73.7966667,148.18454 Z M58.3920176,146.565446 C57.7791309,146.435173 57.3955653,145.834418 57.525822,145.221609 L60.333581,132.012141 C60.4640325,131.398415 61.0628346,131.007427 61.671478,131.136798 C62.2843647,131.267071 62.6679303,131.867826 62.5376736,132.480635 L59.7299146,145.690103 C59.5994631,146.303829 59.000661,146.694817 58.3920176,146.565446 Z M43.6606256,141.778927 C43.0882172,141.524074 42.8379373,140.8567 43.0927579,140.284363 L48.5855634,127.94732 C48.840765,127.374128 49.5077729,127.116182 50.0762182,127.36927 C50.6486266,127.624122 50.8989065,128.291497 50.6440858,128.863833 L45.1512804,141.200876 C44.8960788,141.774068 44.2290708,142.032015 43.6606256,141.778927 Z M30.2463231,134.034176 C29.7394101,133.665882 29.6333544,132.961055 30.001602,132.454205 L37.939392,121.528775 C38.3081902,121.021168 39.0142524,120.907537 39.5176558,121.273281 C40.0245689,121.641575 40.1306246,122.346402 39.7623769,122.853251 L31.824587,133.778682 C31.4557888,134.286289 30.7497265,134.39992 30.2463231,134.034176 Z M18.7353797,123.669676 C18.3161165,123.204037 18.3589201,122.492562 18.8245006,122.073351 L28.8603555,113.037027 C29.326632,112.61719 30.0408903,112.65284 30.4572507,113.115255 C30.8765139,113.580894 30.8337103,114.292369 30.3681298,114.71158 L20.3322749,123.747904 C19.8659983,124.167741 19.1517401,124.132091 18.7353797,123.669676 Z M9.63087868,111.138405 C9.3175892,110.595772 9.50738137,109.908744 10.0499466,109.595493 L21.7452515,102.843206 C22.2886278,102.529488 22.9798656,102.712862 23.2909861,103.251738 C23.6042755,103.794372 23.4144834,104.4814 22.8719182,104.79465 L11.1766133,111.546937 C10.6332369,111.860656 9.94199909,111.677281 9.63087868,111.138405 Z M3.33073053,96.9880406 C3.13710698,96.3921286 3.4655929,95.7595737 4.06143015,95.5659745 L16.9050441,91.3928313 C17.5017721,91.1989426 18.139779,91.5220264 18.332062,92.1138125 C18.5256855,92.7097246 18.1971996,93.3422794 17.6013624,93.5358787 L4.75774844,97.7090218 C4.16102042,97.9029105 3.52301352,97.5798268 3.33073053,96.9880406 Z M0.110281916,81.8370212 C0.0447865794,81.2138747 0.49760985,80.6634387 1.12067817,80.5979516 L14.5512736,79.1863391 C15.1752734,79.1207541 15.7321654,79.5694267 15.7972073,80.1882589 C15.8627026,80.8114054 15.4098793,81.3618413 14.786811,81.4273284 L1.35621564,82.8389409 C0.732215836,82.9045259 0.175323792,82.4558533 0.110281916,81.8370212 Z M0.110281901,66.3475189 C0.175777238,65.7243724 0.733147305,65.280112 1.35621562,65.3455992 L14.786811,66.7572116 C15.4108108,66.8227966 15.8622491,67.3774491 15.7972073,67.9962812 C15.7317119,68.6194277 15.1743419,69.0636881 14.5512735,68.998201 L1.12067815,67.5865885 C0.49667835,67.5210035 0.0452400245,66.966351 0.110281901,66.3475189 Z M3.33073049,51.1964995 C3.52435403,50.6005875 4.16191115,50.281919 4.7577484,50.4755183 L17.6013623,54.6486614 C18.1980903,54.8425501 18.5243449,55.4789413 18.3320619,56.0707275 C18.1384384,56.6666395 17.5008813,56.985308 16.905044,56.7917087 L4.0614301,52.6185656 C3.46470209,52.4246769 3.1384475,51.7882857 3.33073049,51.1964995 Z M9.63087861,37.0461351 C9.9441681,36.5035017 10.634048,36.3243525 11.1766132,36.6376027 L22.8719181,43.3898901 C23.4152944,43.7036086 23.6021064,44.3939254 23.290986,44.9328017 C22.9776965,45.475435 22.2878166,45.6545842 21.7452514,45.3413341 L10.0499465,38.5890466 C9.50657016,38.2753281 9.3197582,37.5850114 9.63087861,37.0461351 Z M18.7353796,24.5148645 C19.1546427,24.0492256 19.8666943,24.0174253 20.3322748,24.4366359 L30.3681297,33.4729602 C30.8344063,33.8927975 30.873611,34.6068696 30.4572506,35.0692846 C30.0379875,35.5349235 29.3259359,35.5667238 28.8603554,35.1475132 L18.8245005,26.1111889 C18.358224,25.6913516 18.3190192,24.9772795 18.7353796,24.5148645 Z M30.246323,14.1503645 C30.753236,13.7820706 31.4563392,13.8990091 31.8245869,14.4058585 L39.7623768,25.3312891 C40.131175,25.8388962 40.0210591,26.5455152 39.5176557,26.9112592 C39.0107427,27.2795531 38.3076395,27.1626146 37.9393919,26.6557652 L30.0016019,15.7303346 C29.6328037,15.2227274 29.7429196,14.5161084 30.246323,14.1503645 Z M43.6606254,6.40561333 C44.2330338,6.1507607 44.8964596,6.41132716 45.1512802,6.98366371 L50.6440857,19.3207067 C50.8992873,19.8938989 50.6446633,20.5621822 50.0762181,20.8152703 C49.5038097,21.070123 48.8403839,20.8095565 48.5855633,20.23722 L43.0927578,7.90017694 C42.8375562,7.32698475 43.0921801,6.65870147 43.6606254,6.40561333 Z M58.3920175,1.61909388 C59.0049042,1.48882079 59.5996577,1.88162722 59.7299145,2.49443704 L62.5376734,15.7039045 C62.6681249,16.3176305 62.2801212,16.9183709 61.6714779,17.047742 C61.0585911,17.1780151 60.4638376,16.7852087 60.3335809,16.1723989 L57.5258219,2.96293138 C57.3953704,2.34920542 57.7833741,1.74846503 58.3920175,1.61909388 Z"/>
          </g>
          <g opacity=".1" transform="translate(24.35 30.922)">
            <polygon fill="#274B8A" points="58.341 -13.407 48.324 53.531 67.173 115.646 72.818 52.229" filter="url(#picture-l)" style="mix-blend-mode:darken" transform="rotate(51 60.571 51.12)"/>
            <polygon fill="#274B8A" points="55.977 -7.976 46.506 52.525 64.25 113.02 70.708 50.986" filter="url(#picture-m)" style="mix-blend-mode:darken" transform="rotate(51 58.607 52.522)"/>
            <polygon fill="#2A2929" fill-opacity=".696" points="59.149 -6.593 48.204 53.365 66.964 108.916 72.47 51.78" filter="url(#picture-n)" style="mix-blend-mode:darken" transform="rotate(51 60.337 51.162)"/>
            <path fill="#101736" fill-opacity=".594" d="M54.480212,-13.9798566 C52.2780292,-14.8890719 54.4229631,0.560004015 55.7920661,20.0161663 C58.7546349,62.1168845 57.2707405,127.338273 64.6556462,128.579871 C65.1270154,119.034665 68.334835,55.1771206 68.334835,55.1771206 C68.334835,55.1771206 56.9080082,-4.50650662 54.480212,-13.9798566 Z" filter="url(#picture-o)" style="mix-blend-mode:darken" transform="rotate(51 60.934 57.28)"/>
            <polygon fill="#2A2929" fill-opacity=".594" points="61.166 -1.201 54.807 -18.484 64.914 125.5 68.229 114.169 69.476 53.949" filter="url(#picture-p)" style="mix-blend-mode:darken" transform="rotate(51 62.141 53.508)"/>
          </g>
          <g transform="rotate(47 40.26 159.493)">
            <use fill="#CF1413" xlink:href="#picture-q"/>
            <path stroke="#FD413D" stroke-opacity=".753" d="M12.8414554,5.97947818 L13.3240096,74.6822107 L24.8716296,74.5106332 L12.8414554,5.97947818 Z"/>
            <g transform="matrix(-1 0 0 1 13.01 0)">
              <use fill="#FE5351" xlink:href="#picture-r"/>
              <path stroke="#FC6B69" d="M1.16649007,5.93107905 L0.651510712,74.4233333 L12.2751499,74.4233333 L1.16649007,5.93107905 Z"/>
            </g>
          </g>
          <g transform="rotate(47 -45.49 121.097)">
            <g transform="matrix(1 0 0 -1 0 74.827)">
              <use fill="#ABABAB" xlink:href="#picture-s"/>
              <path stroke="#C6C6C6" d="M13.9543884,5.89162253 L13.9869841,74.3266794 L25.6873797,74.326678 L13.9543884,5.89162253 Z"/>
            </g>
            <g transform="rotate(180 7.307 37.391)">
              <use fill="#EFEFEF" xlink:href="#picture-t"/>
              <path stroke="#FFF" d="M1.67227867,5.91243235 L1.44075905,74.2828286 L13.0846226,74.2828286 L1.67227867,5.91243235 Z"/>
            </g>
          </g>
        </g>
      </g>
    </g>
  </g>
</svg>
